<?xml version="1.0" encoding="UTF-8"?><svg id="a" xmlns="http://www.w3.org/2000/svg" xmlns:xlink="http://www.w3.org/1999/xlink" viewBox="0 0 1228 195.63"><defs><style>.p{fill:none;}.q{fill:#fff;}.r{fill:#b30f10;}.s{clip-path:url(#c);}</style><clipPath id="c"><rect class="p" x="521.93" y="32.16" width="706.07" height="128.38"/></clipPath></defs><g id="b" transform="translate(86 18.691)"><g class="s"><g id="d" transform="translate(0 0)"><path id="e" class="q" d="M553.22,160.54c-8.62,.58-17.04-2.8-22.88-9.17-6.26-7.7-8.41-21.27-8.41-49.33,0-45.48,5.67-69.88,40.28-69.88,5.73-.03,11.44,.65,17,2.02v18.53h-1.15c-4.68-1.13-9.46-1.76-14.28-1.87-15.25,0-18.58,8.83-18.58,38.54,2.14-6.9,8.84-11.35,16.03-10.63,17.43,0,23.66,15.4,23.66,38.7,0,25.13-7.23,43.1-31.68,43.1m-8.01-40.71c0,16.87,1.37,23.66,8.41,23.66s8.41-6.79,8.41-23.66-1.56-23.66-8.41-23.66-8.41,6.79-8.41,23.66"/><path id="f" class="q" d="M641.43,32.83v17.8h-25.03v39.81h23.07v17.8h-23.07v50.89h-22.88V32.83h47.91Z"/><rect id="g" class="q" x="650.05" y="32.83" width="22.88" height="126.3"/><path id="h" class="q" d="M703.25,108.61v50.89h-21.7V33.2h26.98c8.19-.66,16.4,1.03,23.66,4.87,6.65,4.2,12.91,12.76,12.91,31.4s-5.67,28.55-14.47,34.09l17.99,55.93h-23.86l-14.08-50.89h-7.43Zm0-17.3h6.46c2.62,.25,5.24-.41,7.43-1.87,3.32-2.49,5.28-9.24,5.28-19.15s-1.96-15.45-4.89-17.97c-2.29-1.59-5.04-2.36-7.82-2.19h-6.46v41.17Z"/><path id="i" class="q" d="M807.11,33.2v17.47h-26.99v34.77h22.3v17.63h-22.3v38.8h27.77v17.63h-50.65V33.2h49.87Z"/><rect id="j" class="q" x="845.27" y="32.83" width="22.88" height="126.3"/><path id="k" class="q" d="M910.2,32.83l26.98,83.47V32.83h19.36v126.3h-22.1l-28.95-85.66v85.66h-19.36V32.83h24.06Z"/><path id="l" class="q" d="M990.38,32.83l14.67,100.94,15.25-100.94h19.92l-22.88,126.3h-27.4l-22.84-126.3h23.27Z"/><path id="m" class="q" d="M1100.66,32.83v17.46h-26.96v34.77h22.3v17.63h-22.3v38.8h27.77v17.63h-50.62V32.83h49.81Z"/><path id="n" class="q" d="M1158.38,50.47h-1.17c-3.6-.8-7.27-1.25-10.95-1.34-8.02,0-12.91,3.69-12.91,13.6,0,12.45,7.63,18.3,15.45,27.21,9,9.23,13.87,21.71,13.49,34.6,0,24.69-12.51,35.27-34.81,35.27-5.33,.01-10.64-.55-15.84-1.68v-17.13h1.17c3.88,1.13,7.89,1.76,11.93,1.87,9.19,0,14.47-4.53,14.47-15.29,0-12.93-7.43-20.83-15.25-29.73-9.03-8.39-14.02-20.26-13.7-32.58,0-22.17,10.95-33.09,32.86-33.09,5.11,.05,10.21,.5,15.25,1.34v16.94Z"/><path id="o" class="q" d="M1227.98,32.83v17.8h-19.56v108.5h-22.88V50.63h-19.36v-17.8h61.79Z"/></g></g></g><path class="r" d="M367.08,0h-29.83c-12.74,16.43-25.46,32.88-38.23,49.28-8.67,11.14-17.42,22.22-26.62,33.95-1.13-1.66-2.04-2.84-2.78-4.11-.57-.97-1.14-1.94-1.71-2.92L229.04,15.33,246.41,0h-56.42c-9.78,13.88-19.5,27.8-29.34,41.63-17.69,24.84-35.4,49.67-53.12,74.49h0v.02c-6.4,8.95-12.8,17.91-19.19,26.86h0l-4.52,5.68-1.41,1.77-41.21-57.5L94.38,0H56.13c-10.66,17.86-21.3,35.73-31.98,53.57-5.21,8.7-10.42,17.41-15.7,26.07h0l-2.05,3.46h0L0,93.92l7.48,12.41c16.6,28.37,33.12,56.79,49.52,85.27,.28,.49,.57,.9,.87,1.28l1.62,2.75h40.28l8.32-13.24c14.62-21.13,29.31-42.2,43.99-63.29,.93-1.34,1.93-2.64,3.39-4.62l.05-.08c.07-.09,.13-.18,.2-.27l-.25,.34,2.78,3.28,50.69,62.44-17.37,14.99h48.97l38.55-51.23c23.79-30.97,47.7-61.85,71.55-92.77,1.05-1.36,2.19-2.66,3.63-4.42,1.22,1.39,2.29,2.47,3.21,3.67,10.39,13.37,20.68,26.81,31.18,40.09h-.02l5.46,7.41-4.37,6.5c-17.08,28.06-34.02,56.21-51,84.34-1.12,1.86-2.21,3.74-3.81,6.47l-.29,.41h34.99l60.44-97.82L367.08,0ZM187.1,95.03c8.92-11.83,17.85-23.67,26.74-35.45,8.85,11.74,17.77,23.58,26.68,35.4-8.92,11.83-17.84,23.66-26.73,35.46-8.86-11.76-17.78-23.59-26.69-35.4h0Z"/></svg>