<?xml version="1.0" encoding="UTF-8"?><svg id="a" xmlns="http://www.w3.org/2000/svg" viewBox="0 0 973 442.61"><defs><style>.b{fill:#b30f10;}</style></defs><path class="b" d="M830.52,0h-67.49c-28.82,37.17-57.6,74.38-86.49,111.5-19.62,25.2-39.41,50.28-60.23,76.82-2.56-3.76-4.61-6.42-6.29-9.29-1.29-2.2-2.57-4.4-3.86-6.6l-87.95-137.74L557.5,0h-127.64c-22.12,31.4-44.11,62.9-66.38,94.19-40.02,56.21-80.1,112.38-120.19,168.54h0l-.03,.04c-14.46,20.26-28.92,40.52-43.38,60.78h0l-10.23,12.85-3.19,4.01L93.23,210.32,213.53,0H126.99c-24.11,40.4-48.18,80.84-72.35,121.2-11.79,19.69-23.57,39.39-35.51,58.99h0l-4.63,7.82h0L0,212.49l16.92,28.07c37.56,64.19,74.93,128.48,112.03,192.93,.64,1.11,1.3,2.04,1.97,2.9l3.66,6.23,90.92-.29,18.83-29.74c33.1-47.84,66.37-95.56,99.61-143.31,2.11-3.03,4.36-5.98,7.67-10.47l.12-.17c.15-.21,.29-.4,.45-.61l-.57,.78,6.29,7.42,114.78,141.4-39.33,34.19h110.88l87.3-116.27c53.88-70.12,108.01-140.05,162.02-210.07,2.38-3.09,4.95-6.03,8.23-10.02,2.77,3.14,5.18,5.6,7.28,8.3,23.52,30.27,46.83,60.71,70.61,90.78l-.05-.02,12.36,16.79-9.89,14.71c-38.67,63.55-77.04,127.29-115.48,190.98-2.54,4.21-5,8.47-8.63,14.64l-.66,.98h78.93l136.75-221.31L830.52,0ZM423.26,214.76c20.2-26.79,40.41-53.59,60.54-80.28,20.03,26.58,40.25,53.39,60.42,80.16-20.19,26.78-40.39,53.57-60.53,80.29-20.07-26.63-40.27-53.42-60.43-80.17Z"/></svg>